<svg width="300" height="174" viewBox="0 0 300 174" fill="none" xmlns="http://www.w3.org/2000/svg">
<g clip-path="url(#clip0)">
<path d="M299.999 166.555C292.942 168.5 285.777 170.015 278.542 171.094C269.42 172.527 260.201 173.23 250.971 173.196C242.674 173.449 234.405 172.095 226.61 169.207C220.592 166.901 215.271 163.048 211.172 158.028C207.238 153.006 204.449 147.166 203.005 140.926C201.354 133.739 200.562 126.377 200.644 118.999C200.644 118.999 200.644 109.827 200.408 102.995L219.292 117.16L233.29 98.2659V114.986C233.29 125.615 234.66 133.283 237.445 138.012C240.23 142.741 245.4 145.178 252.977 145.178C255.338 145.178 257.698 145.058 260.437 144.843C263.175 144.628 265.394 144.366 267.518 144.055V54.0533L300.141 48.7268L299.999 166.555Z" fill="#070D9A"/>
<path d="M166.607 166.556C159.557 168.498 152.4 170.014 145.173 171.094C136.044 172.528 126.817 173.231 117.578 173.196C109.265 173.455 100.98 172.101 93.1704 169.207C87.1554 166.908 81.8408 163.053 77.7561 158.029C73.8393 153.002 71.0666 147.162 69.6359 140.926C67.795 133.763 66.8201 126.4 66.7324 118.999V118.999L82.0287 98.5052L99.8507 111.905V115.034C99.8507 125.655 101.236 133.331 104.005 138.06C106.791 142.837 111.96 145.226 119.561 145.226C121.922 145.226 124.282 145.106 126.997 144.891C129.711 144.676 131.954 144.414 134.078 144.103V60.2401L166.677 54.0537L166.607 166.556Z" fill="#FF3333"/>
<path d="M62.7193 87.4937C65.4103 91.9046 66.7559 99.4286 66.7559 110.066V113.935L81.3676 94.2056L99.7325 107.988C99.4311 100.065 98.5395 92.1758 97.0651 84.3885C95.6965 78.2964 93.0121 72.5865 89.2045 67.6685C85.2579 62.7743 80.1265 58.9973 74.3096 56.7049C66.8622 53.9084 58.9511 52.5945 51.0111 52.8354C47.6666 52.8472 44.3309 53.1831 41.0497 53.8386C38.196 54.3413 35.3802 55.0437 32.6226 55.9405V0L0 5.32653V171.978H32.6226V83.2898C34.6526 82.6926 36.9423 82.1432 39.5153 81.6178C42.2135 81.0864 44.9576 80.8304 47.7064 80.8534C55.0004 80.8534 60.0047 83.0509 62.7193 87.4937Z" fill="#070D9A"/>
<path d="M196.468 86.7052C198.446 90.4932 199.658 94.6428 200.032 98.9108L218.586 112.86L232.749 93.7515C232.296 90.4215 231.658 87.12 230.837 83.8628C229.409 77.6088 226.646 71.747 222.74 66.6889C218.641 61.6689 213.321 57.8161 207.302 55.5104C199.457 52.7576 191.198 51.4078 182.894 51.5214C177.253 51.5214 166.607 55.4865 166.607 55.4865V48.7268L133.866 54.0533V170.664L166.489 166.555V80.7338C168.519 80.4232 170.856 80.1844 173.57 79.9455C176.285 79.7067 178.693 79.635 181.03 79.635C188.513 79.635 193.706 81.9758 196.468 86.7052Z" fill="#FF3333"/>
</g>
<defs>
<clipPath id="clip0">
<rect width="300" height="173.196" fill="white"/>
</clipPath>
</defs>
</svg>
